<?xml version="1.0" encoding="UTF-8"?><svg id="Layer_1" xmlns="http://www.w3.org/2000/svg" viewBox="0 0 73.59 87.21"><defs><style>.cls-1{fill:#a4c639;}</style></defs><path class="cls-1" d="M21.48.65l4.06,7.06c-7.39,3.63-12.41,10.73-12.41,18.87h47.31c0-8.15-5.01-15.25-12.41-18.87l4.06-7.06s.19-.37-.17-.59c-.37-.21-.61.15-.61.15l-4.12,7.12c-3.14-1.4-6.67-2.19-10.41-2.19s-7.27.79-10.41,2.19L22.26.22s-.23-.36-.6-.15c-.37.21-.18.59-.18.59h0ZM25.54,14.33c1.24,0,2.25,1.01,2.25,2.25s-1.01,2.22-2.25,2.22-2.25-.98-2.25-2.22,1.01-2.25,2.25-2.25ZM48.04,14.33c1.24,0,2.25,1.01,2.25,2.25s-1.01,2.22-2.25,2.22-2.25-.98-2.25-2.22,1.01-2.25,2.25-2.25Z"/><path class="cls-1" d="M12.95,29.34v35.89c0,1.78,2.15,4.11,3.93,4.11h5.63v12.24c0,3.12,2.27,5.62,5.09,5.62s5.09-2.51,5.09-5.62v-12.24h8.19v12.24c0,3.12,2.27,5.62,5.09,5.62s5.12-2.51,5.12-5.62v-12.24h5.6c1.78,0,3.93-2.33,3.93-4.11V29.34H12.95Z"/><path class="cls-1" d="M5.1,28.59h0c2.82,0,5.1,2.52,5.1,5.62v21.3c0,3.11-2.28,5.62-5.1,5.62h0c-2.82,0-5.1-2.52-5.1-5.62v-21.3c0-3.11,2.28-5.62,5.1-5.62Z"/><path class="cls-1" d="M68.49,28.59h0c2.82,0,5.1,2.52,5.1,5.62v21.3c0,3.11-2.28,5.62-5.1,5.62h0c-2.82,0-5.1-2.52-5.1-5.62v-21.3c0-3.11,2.28-5.62,5.1-5.62Z"/></svg>