<?xml version="1.0" encoding="UTF-8"?><svg id="uuid-36cdb551-671e-4f6c-89c8-756dc4bff3f9" xmlns="http://www.w3.org/2000/svg" viewBox="0 0 155.38 188.1">
<title>Apple classic logo - Brandlogos.net</title><path d="M116.98,44.32c-15.11-1.12-27.92,8.44-35.07,8.44s-18.44-8.19-30.29-7.97c-15.58.23-29.92,9.06-37.96,23-16.17,28.07-4.12,69.66,11.63,92.44,7.7,11.13,16.89,23.68,28.97,23.22,11.62-.46,16.01-7.51,30.06-7.51s17.99,7.51,30.28,7.29c12.51-.24,20.43-11.36,28.08-22.55,8.85-12.92,12.49-25.44,12.71-26.1-.28-.1-24.37-9.35-24.62-37.12-.21-23.22,18.95-34.38,19.82-34.91-10.88-16.02-27.69-17.79-33.6-18.23" style="fill:#fff;"/><path d="M107.66,29.29c6.41-7.75,10.73-18.55,9.54-29.29-9.23.36-20.4,6.15-27.02,13.9-5.93,6.86-11.14,17.86-9.73,28.38,10.29.8,20.79-5.23,27.2-12.98" style="fill:#fff;"/><path d="M111.83,47.9c-15.22-1.13-28.13,8.5-35.33,8.5s-18.58-8.26-30.53-8.04c-15.69.23-30.15,9.13-38.24,23.18-16.3,28.28-4.16,70.2,11.71,93.15,7.76,11.22,17.02,23.85,29.19,23.39,11.7-.46,16.14-7.57,30.29-7.57s18.13,7.57,30.51,7.34c12.6-.23,20.58-11.45,28.29-22.73,8.92-13.02,12.59-25.62,12.8-26.28-.28-.1-24.56-9.42-24.81-37.4-.22-23.39,19.09-34.64,19.97-35.18-10.97-16.14-27.9-17.93-33.86-18.37" style="fill:#b0b7bb;"/><path d="M102.44,32.75c6.46-7.81,10.81-18.69,9.62-29.51-9.31.37-20.56,6.2-27.23,14-5.97,6.92-11.22,17.99-9.8,28.59,10.37.81,20.95-5.27,27.41-13.08" style="fill:#b0b7bb;"/></svg>