<?xml version="1.0" encoding="UTF-8"?><svg id="Layer_1" xmlns="http://www.w3.org/2000/svg" xmlns:xlink="http://www.w3.org/1999/xlink" viewBox="0 0 264.75 186.21"><defs><style>.cls-1{fill:url(#linear-gradient);}.cls-2{fill:#420000;fill-rule:evenodd;opacity:.12;}.cls-3{fill:#fff;}</style><linearGradient id="linear-gradient" x1="132.37" y1="0" x2="132.37" y2="186.21" gradientUnits="userSpaceOnUse"><stop offset="0" stop-color="#e52d27"/><stop offset="1" stop-color="#bf171d"/></linearGradient></defs><path id="Triangle" class="cls-3" d="M105.03,127.44l71.54-37.06-71.54-37.32v74.39Z"/><path id="The_Sharpness" class="cls-2" d="M105.03,53.06l62.73,41.89,8.8-4.57-71.54-37.32Z"/><g id="Lozenge"><path class="cls-1" d="M262.1,40.17s-2.59-18.24-10.52-26.28c-10.07-10.54-21.35-10.6-26.53-11.21C188.01,0,132.43,0,132.43,0h-.12s-55.57,0-92.62,2.68c-5.18.62-16.46.67-26.53,11.21C5.23,21.93,2.65,40.17,2.65,40.17,2.65,40.17,0,61.59,0,83.02v20.09C0,124.53,2.65,145.95,2.65,145.95c0,0,2.58,18.24,10.52,26.28,10.07,10.54,23.3,10.21,29.19,11.32,21.18,2.03,90.01,2.66,90.01,2.66,0,0,55.63-.08,92.68-2.76,5.17-.62,16.46-.67,26.53-11.21,7.94-8.03,10.52-26.28,10.52-26.28,0,0,2.64-21.42,2.64-42.85v-20.09c0-21.42-2.64-42.85-2.64-42.85ZM105.04,127.44V53.06s71.52,37.32,71.52,37.32l-71.52,37.06Z"/></g></svg>